<svg version="1.1" id="Layer_1" xmlns="http://www.w3.org/2000/svg" xmlns:xlink="http://www.w3.org/1999/xlink" x="0px" y="0px" viewBox="0 0 210.2 47" style="enable-background:new 0 0 210.2 47;" xml:space="preserve">
 <style type="text/css">
  .st0{fill:#101B41;}
	.st1{fill:#77AC43;}
	.st2{fill:#19335C;}
	.st3{fill:#FFFFFF;}
 </style>
 <g>
  <path class="st0" d="M43.8,24L43.8,24C43.8,24.1,43.8,24.1,43.8,24L43.8,24z">
  </path>
  <path class="st1" d="M50,20.1l-24.9-8.9l-7.7,9.2c-1.6,1.9-1.6,3.9,0,4.4l7.7,2.8l25.9-4.9C51.4,21.5,51.1,20.5,50,20.1">
  </path>
  <path class="st2" d="M17.1,31.1c-2.8,0.5-5.6,2.3-7.6,4.6L0,47l35.6-6.7c1.4-0.3,3-1.2,4.1-2.5l10.5-13c0,0,0,0,0,0l-23.2,4.4
		L17.1,31.1z M30.5,7.3c-1.4,0.2-2.8,1.1-3.9,2.3l19.2,6.7l1.9-0.4c2.8-0.5,5.6-2.3,7.6-4.6L64.8,0L30.5,7.3z">
  </path>
  <path class="st3" d="M25.1,11.2L25.1,11.2L25.1,11.2z">
  </path>
  <path class="st3" d="M25.1,11.2L25.1,11.2L25.1,11.2z">
  </path>
  <path class="st2" d="M153.3,28.8h7l-1.8,7.2c-1.1,0.4-2.7,0.6-4.9,0.6c-7.2,0-11.7-2.9-11.7-8.6c0-4.7,2.6-8.7,6.5-11
		c3-1.8,7.1-2.7,11.6-2.7c4,0,7.6,0.7,9.7,1.4l2.9-6.2c-1.8-0.7-6.1-1.5-12.1-1.5c-7.9,0-14.9,1.8-20,5c-5.8,3.7-9.3,9.2-9.3,15.6
		c0,4.4,2.1,8.1,5.7,10.5c3.8,2.5,8.9,3.7,15.2,3.7c5.7,0,11.2-1.1,14.7-1.9l4.5-17.9h-16.5L153.3,28.8z M189,16.6
		c2.8-1.7,6.5-2.6,10.4-2.6c3.9,0,6.9,0.6,8.2,1.1l2.6-5.9c-1.3-0.6-5-1.5-9.9-1.5c-6.4,0-12,1.2-16.7,3.6
		c-6.9,3.4-11.5,9.4-11.5,17.1c0,9,8.1,14.5,20.1,14.5c5.5,0,9.6-0.7,12-1.5l-0.8-5.9c-2.3,0.7-5.5,1.1-8.6,1.1
		c-8,0-12.1-3.6-12.1-9.1C182.7,22.8,185.1,18.9,189,16.6 M77.3,28l4.5-7.3c1.2-2,2.5-4.6,3.6-6.7h0.1c0.2,2.1,0.5,4.8,0.7,6.7
		l0.9,7.3H77.3z M120.8,22.4c-3.8-1.6-6.6-2.8-6.6-4.8c0-1.9,2.4-3.6,6.9-3.6c3.8-0.1,7,0.9,8.5,1.5l3-6.1c-2-0.8-5.2-1.7-10.7-1.7
		c-9.9,0-18,4.2-18,11.1c0,4.5,4.6,7.1,9.4,9.1c4.2,1.6,6.1,2.9,6.1,4.8c0,2.7-3.4,4-7.2,4c-4.2,0-8-1-10.7-2.2l-3.2,5.9l-5-32.2
		H80.9L58.8,42.4h10.3l5.4-8.9h13.1l0.9,8.9h10.2l-0.3-1.9c2.2,1.2,6.7,2.4,13,2.4c10.1,0,18.5-3.9,18.5-11.5
		C129.9,27.4,126.4,24.6,120.8,22.4">
  </path>
 </g>
</svg>